<svg xmlns="http://www.w3.org/2000/svg" width="3" height="28" viewBox="0 0 3 28">
  <defs>
    <style>
      .cls-1 {
        fill: #6d6e71;
        fill-rule: evenodd;
      }

      .cls-2 {
        fill: #bcbec3;
      }
    </style>
  </defs>
  <path id="icon" class="cls-1" d="M120.33,25.271H98.311a3.654,3.654,0,0,1-3.67-3.638V5.261a3.654,3.654,0,0,1,3.67-3.638H120.33A3.654,3.654,0,0,1,124,5.261V21.633A3.654,3.654,0,0,1,120.33,25.271Zm-21.1-21.83,10.092,8.7,10.092-8.7H99.229Zm22.936,1.819a1.8,1.8,0,0,0-.583-1.323L109.321,14.357,97.06,3.937a1.8,1.8,0,0,0-.583,1.323V21.633a1.827,1.827,0,0,0,1.835,1.819H120.33a1.827,1.827,0,0,0,1.835-1.819V5.261Z"/>
  <rect id="divide" class="cls-2" x="71" y="2" width="1" height="24"/>
  <rect id="divide-2" data-name="divide" class="cls-2" x="1" y="2" width="1" height="24"/>
</svg>
