<svg xmlns="http://www.w3.org/2000/svg" width="25" height="42" viewBox="0 0 25 42">
  <defs>
    <style>
      .cls-1 {
        fill: #d4d4d4;
        fill-rule: evenodd;
      }
    </style>
  </defs>
  <path id="arrow" class="cls-1" d="M2,6.024l15.063,14.97L1.805,36.159h0A2.838,2.838,0,0,0,1,38.143,2.878,2.878,0,0,0,5.87,40.2h0l17.25-17.143h0A2.84,2.84,0,0,0,24,21s0,0,0-.006,0,0,0-.006a2.84,2.84,0,0,0-.88-2.056h0L5.871,1.787l-0.007.007A2.878,2.878,0,0,0,1,3.857,2.843,2.843,0,0,0,2,6.024Z"/>
</svg>
